<?xml version="1.0" encoding="utf-8"?>
<!-- Generator: Adobe Illustrator 21.0.0, SVG Export Plug-In . SVG Version: 6.00 Build 0)  -->
<svg version="1.1" id="Layer_1" xmlns="http://www.w3.org/2000/svg" xmlns:xlink="http://www.w3.org/1999/xlink" x="0px" y="0px"
	 width="128px" height="118.8px" viewBox="0 0 128 118.8" enable-background="new 0 0 128 118.8" xml:space="preserve">
<g>
	<path fill="#FFFFFF" d="M127.8,33.8l0-7.4c0-2.7-1.7-5.2-4.3-6.1l-7.6-2.6L65.8,0.7C64.5,0.2,63,0,61.5,0h0c-1.4,0-2.8,0.2-4.2,0.7
		l0,0l0,0L10.9,17.1l-6.6,2.3c-2.5,0.9-4.2,3.3-4.2,5.9l0,7.4l0,0L0,90.4c0,4.1,2.6,7.8,6.5,9.1l49.9,17.2c0,0,0.1,0,0.1,0l4.2,1.4
		c2,0.7,4.1,0.7,6.1,0.1l3.9-1.2c0.2,0,0.4-0.1,0.6-0.2l0.3-0.1l0.2-0.1l0,0l49.7-17.2c3.9-1.3,6.5-5,6.5-9.1L127.8,33.8z M58.1,2.9
		c1.1-0.4,2.3-0.6,3.4-0.6c1.2,0,2.4,0.2,3.6,0.6l52.7,18c2.1,0.7,2.1,3.8,0,4.5l-49.5,17c-1.4,0.5-2.9,0.7-4.4,0.7
		c-1.5,0-3.1-0.3-4.5-0.8L58.4,42c-0.1,0-0.1,0-0.2-0.1l-21.9-7.5L8.6,24.8c-2.1-0.8-2.1-3.8,0-4.5L58.1,2.9z M2.3,90.4l0.2-59
		c0-2.5,2.1-4.4,4.4-4.4c0.5,0,1,0.1,1.5,0.2l27.3,9.4l22,7.6c3,1.1,5.1,4,5.2,7.2c0,0.1,0,0.2,0,0.3l0,15.8l-0.1,43.2
		c0,2.4-1.9,4.1-4.1,4.1c-0.4,0-0.9-0.1-1.4-0.2L7.2,97.4C4.3,96.3,2.3,93.6,2.3,90.4z M120.8,97.4l-50.2,17.4
		c-0.5,0.2-0.9,0.2-1.4,0.2c-2.2,0-4.1-1.8-4.1-4.1l0.1-43.4l0-15.8c0-0.1,0-0.2,0-0.3c0.1-3.3,2.2-6.2,5.4-7.3l49.1-16.9
		c0.5-0.2,1-0.2,1.5-0.2c2.4,0,4.4,1.9,4.4,4.4l0.2,59C125.7,93.6,123.7,96.3,120.8,97.4z"/>
	<path fill="#FFFFFF" d="M44.5,52.7l-1.4-0.5l0,29.4c0,2.3-0.3,4.4-0.8,6.2c-0.5,1.8-1.3,3.3-2.2,4.5c-1,1.1-2.2,1.9-3.6,2.2
		c-1.4,0.3-3,0.2-4.8-0.4c-1.8-0.6-3.4-1.7-4.8-3c-1.4-1.4-2.6-3-3.6-4.9c-1-1.9-1.7-3.9-2.2-6.1c-0.5-2.2-0.8-4.5-0.8-6.8l0-29.4
		l-1.3-0.5l0,29.4c0,2.5,0.3,5,0.9,7.5c0.6,2.4,1.4,4.7,2.5,6.7c1.1,2.1,2.4,3.8,4,5.4c1.6,1.5,3.3,2.6,5.3,3.4
		c2,0.7,3.7,0.9,5.3,0.5c1.6-0.4,2.9-1.2,4-2.4c1.1-1.3,2-2.9,2.5-4.9c0.6-2,0.9-4.3,0.9-6.8L44.5,52.7"/>
	<path fill="#FFFFFF" d="M84,52.8l1.4-0.5l0,29.4c0,2.3,0.3,4.4,0.8,6.2c0.5,1.8,1.3,3.3,2.2,4.5s2.2,1.9,3.6,2.2
		c1.4,0.3,3,0.2,4.8-0.4c1.8-0.6,3.4-1.7,4.8-3c1.4-1.4,2.6-3,3.6-4.9c1-1.9,1.7-3.9,2.2-6.1c0.5-2.2,0.8-4.5,0.8-6.8l0-29.4
		l1.3-0.5l0,29.4c0,2.5-0.3,5-0.9,7.5c-0.6,2.4-1.4,4.7-2.5,6.7c-1.1,2.1-2.4,3.8-4,5.4c-1.6,1.5-3.3,2.6-5.3,3.4
		c-2,0.7-3.7,0.9-5.3,0.5c-1.6-0.4-2.9-1.2-4-2.4c-1.1-1.3-2-2.9-2.5-4.9c-0.6-2-0.9-4.3-0.9-6.8L84,52.8"/>
</g>
</svg>
