<?xml version="1.0" encoding="utf-8"?>
<!-- Generator: Adobe Illustrator 21.0.0, SVG Export Plug-In . SVG Version: 6.00 Build 0)  -->
<svg version="1.1" class="site-avatar" xmlns="http://www.w3.org/2000/svg" xmlns:xlink="http://www.w3.org/1999/xlink" x="0px" y="0px"
	 width="128.1px" height="109.8px" viewBox="0 0 128.1 109.8" xml:space="preserve">
	<g>
		<g class="site-avatar-typeGroup" >
			<path class="site-avatar-type" fill="#00DA74"
				d="M40.6,41.9l0,1.9c0,0-11.9-3.3-13.6-3.8c-2.3-0.6-2.7,0.5-2.7,2.9c0,1.4,0,1.2,0,2.8
				c0,1.7,0,3.9,0.1,6.1c0,2.2,0.1,4.4,0.1,6c0,1.6,0,2.7,0,2.7L40,65l0,2.2l-15.5-4.3c0,0,0,0.1,0,1.9c0,1.8,0,4.1,0.1,6.5
				c0,2.4,0.1,4.7,0.1,6.5c0,1.8,0,3,0,3c0,0,0.2,3.8,2.9,4.6c2.7,0.8,13.5,3.8,13.5,3.8l0,1.9l-14.4-4.1c-0.6-0.2-1.1-0.4-1.5-0.8
				c-0.5-0.4-0.8-0.9-1.2-1.5c-0.3-0.6-0.6-1.3-0.8-2c-0.2-0.7-0.3-1.6-0.3-2.4l-0.4-37.7c0-0.9,0.1-1.6,0.2-2.3
				c0.2-0.6,0.4-1.2,0.7-1.6c0.3-0.4,0.7-0.7,1.2-0.8c0.4-0.1,1-0.1,1.5,0L40.6,41.9"
			/>
			<polygon class="site-avatar-type" fill="#00DA74" points="98.7,39.1 99.5,87.3 97.4,87.9 96.6,39.7 			"/>
		</g>
		<path class="site-avatar-boundingBox" fill="#00DA74"
			d="M128,24.6C128,24.6,128,24.6,128,24.6c0-4.5-0.9-7.2-6-8.6c0,0,0,0,0,0c-0.1,0-0.1,0-0.2-0.1L64.3,0.4
			c-1-0.3-2-0.4-3-0.4c-1,0-2,0.1-3,0.4L5.8,14.8c-0.1,0-0.2,0.1-0.2,0.1c-0.1,0-0.1,0.1-0.2,0.1c0,0-0.1,0-0.1,0
			c-4.9,1.8-5.1,5.5-5.1,9.1c0,0,0,0,0,0c0,0.1,0,0.1,0,0.2l0,64.6c0,1.9,1.3,3.6,3.2,4.1L59,108.9c0,0,0,0,0.1,0l0,0
			c3.9,1.1,8.4,1.1,12.4,0.1c0,0,0.1,0,0.1,0l0.1,0c0,0,0,0,0,0l0,0l52.8-14.7c2.1-0.6,3.6-2.6,3.6-4.8L128,24.6z M6.2,16.3L58.6,2
			c0.8-0.2,1.7-0.3,2.6-0.3c0.9,0,1.8,0.1,2.6,0.4l57.6,15.6c1.7,0.5,1.7,2.8,0,3.3L66.6,35.7C65.9,35.9,65,36,64.2,36
			c-0.8,0-1.7-0.1-2.5-0.3L6.2,20C4.3,19.5,4.3,16.9,6.2,16.3z M3.7,20C3.7,20,3.7,20,3.7,20C3.7,20,3.7,20,3.7,20
			C3.7,20,3.7,20,3.7,20z M3.7,91.3C2.6,91,1.8,90,1.8,88.9l0-64.6c0-0.7,0.2-1.3,0.7-1.8C3,22,3.7,21.7,4.4,21.7
			c0.2,0,0.5,0,0.7,0.1l54.8,15.6c2.1,0.6,3.6,2.5,3.6,4.7l0.7,62.5c0,0.8-0.3,1.6-0.9,2.2c-0.6,0.6-1.4,0.9-2.1,0.9
			c-0.3,0-0.6,0-0.8-0.1L3.7,91.3z M124,92.6l-53.6,14.9c-0.3,0.1-0.5,0.1-0.8,0.1c-1.6,0-3-1.3-3-3L65.8,42c0-2.4,1.6-4.5,3.9-5.1
			l53.7-14.6c0.2-0.1,0.4-0.1,0.6-0.1c1.2,0,2.3,1,2.3,2.3l0,65.1C126.3,91,125.3,92.2,124,92.6z"/>
	</g>
</svg>
